<?xml version="1.0" encoding="UTF-8"?>
<svg id="Layer_1" data-name="Layer 1" xmlns="http://www.w3.org/2000/svg" width="1000" height="1000" viewBox="0 0 1000 1000">
  <defs>
    <style>
      .cls-1 {
        fill: #f49726;
      }

      .cls-1, .cls-2 {
        stroke-width: 0px;
      }

      .cls-2 {
        fill: #fff;
      }
    </style>
  </defs>
  <circle class="cls-1" cx="500" cy="500" r="285.2"/>
  <path class="cls-2" d="m181.3,305.96l-52.1,381.9h51.53l9.16-85.88h48.1l9.73,85.88h52.1l-49.81-381.9h-68.71Zm14.31,246.21l18.32-176.92,18.32,176.92h-36.64Zm615.64-117.38l48.09-128.83h-54.39l-52.1,143.72v-143.72h-53.25v381.9h53.25v-117.95l22.9-62.41,39.51,180.36h55.54l-59.55-253.07Zm-395.1,32.64c-35.5-53.25-37.79-58.4-37.79-81.88s8.01-35.5,22.33-35.5c12.02,0,20.61,8.59,22.33,24.05,1.15,8.02,1.72,14.88,1.72,34.35l52.1-5.15c0-31.49,0-33.21-2.86-47.52-7.44-34.93-33.78-55.54-69.85-55.54-48.09,0-78.44,32.06-78.44,82.45,0,33.78,10.88,60.12,43.52,109.36l26.34,38.93c26.34,34.93,32.64,49.81,32.64,75.01s-8.01,37.79-24.05,37.79c-20.61,0-27.48-12.6-27.48-52.1v-16.6l-52.67,2.29c-.57,9.16-.57,12.6-.57,20.61,0,33.21,4.01,49.24,16.6,66.42,14.89,20.04,34.93,29.2,63.55,29.2,49.81,0,77.87-28.63,77.87-79.59,0-32.64-13.74-71.57-38.36-107.64l-26.91-38.94Zm193.97,145.43c0,21.76-6.3,30.92-22.33,30.92s-22.33-9.16-22.33-30.92v-306.89h-53.25v285.14c0,45.23,1.72,54.97,12.02,71.57,12.6,18.9,36.64,30.92,63.55,30.92s50.96-12.03,63.56-30.92c10.3-16.6,12.02-26.34,12.02-71.57v-285.14h-53.25v306.89Z"/>
</svg>